<svg height="512" viewBox="0 0 60 56" width="512" xmlns="http://www.w3.org/2000/svg"><g id="Page-1" fill="none" fill-rule="evenodd"><g id="009---Eagle" fill-rule="nonzero" transform="translate(-1)"><g id="Icons" transform="translate(1 1)"><path id="Shape" d="m59 24c.0174134 2.944781-1.050586 5.7927794-3 8-.0508329-1.3884671-.3914562-2.7509606-1-4-2.9206977-.1031409-5.7655208-.9572766-8.26-2.48-.25-.17-.5-.34-.74-.52-4-3-4-2-8-3s-2-4-2-4c1.9069238.7533629 3.9518192 1.0941789 6 1s4.0930762.2466371 6 1c0 0-2.53-5.06 1.7-5.88.4280331-.0847413.8636872-.1249556 1.3-.12 6 0 8 5 8 10z" fill="#ff9801"/><path id="Shape" d="m51 14c-.4363128-.0049556-.8719669.0352587-1.3.12-.035.007-.061.019-.1.027 4.754.824 6.4 5.332 6.4 9.853.0007268 1.5049971-.2783481 2.9970135-.823 4.4.4919227 1.1396567.7708618 2.3598036.823 3.6 1.949414-2.2072206 3.0174134-5.055219 3-8 0-5-2-10-8-10z" fill="#f57c00"/><path id="Shape" d="m36 18s-2 3 2 4 4 0 8 3c.24.18.49.35.74.52-6.74 3.04-6.68 7.81-5.74 13.48.4380317 3.3228226 1.8271014 6.4482294 4 9-1.0896371.0518834-2.1594204-.3047111-3-1 .5949744 2.3743194.2359849 4.8872462-1 7-6 0-7-4-7-4 0 2-3 4-3 4 .1260798-1.6009333-.6436055-3.1403038-2-4 0 3-3 4-3 4 0-2.3606798-1.1114562-4.5835921-3-6-1 2-4 4-4 4 1-7-4-7-4-7-.562164 1.1623772-1.7108195 1.9281475-3 2 1-2-1-4-1-4-2.4871501 1.1938077-5.29551723 1.5448536-8 1 0 0 3-2 2-4s-3 0-3 0c-2-13 2-17 2-17-1.08963707-.0518834-2.15942037.3047111-3 1-.0756745-5.7737272 2.98729263-11.1339196 8-14-2-1-5 0-5 0s7-10 26-10c14.94 0 18.75 9.89 19.7 14.12-4.23.82-1.7 5.88-1.7 5.88-1.9069238-.7533629-3.9518192-1.0941789-6-1s-4.0930762-.2466371-6-1z" fill="#f5f5f5"/><path id="Shape" d="m46.74 25.52c-.25-.17-.5-.34-.74-.52-4-3-4-2-8-3-2.745-.686-2.664-2.314-2.344-3.268-.9130624-.1290842-1.8057232-.3751036-2.656-.732 0 0-2 3 2 4s4 0 8 3c.24.18.49.35.74.52-6.74 3.04-6.68 7.81-5.74 13.48.4380317 3.3228226 1.8271014 6.4482294 4 9-1.0896371.0518834-2.1594204-.3047111-3-1 .5538386 2.2396862.269294 4.6046073-.8 6.649.9132387.2427094 1.85511.3607797 2.8.351 1.2359849-2.1127538 1.5949744-4.6256806 1-7 .8405796.6952889 1.9103629 1.0518834 3 1-2.1728986-2.5517706-3.5619683-5.6771774-4-9-.94-5.67-1-10.44 5.74-13.48z" fill="#cfd8dc"/><path id="Shape" d="m49.7 14.12c-.95-4.23-4.76-14.12-19.7-14.12-.57 0-1.128.01-1.677.028 13.844.565 17.456 9.99 18.377 14.092-3.149.61-2.552 3.569-2.041 5.042 1.1497744.1079664 2.2763773.3905444 3.341.838 0 0-2.53-5.06 1.7-5.88z" fill="#cfd8dc"/><circle id="Oval" cx="37" cy="12" fill="#607d8b" r="2"/></g><g id="Icons_copy" fill="#000"><path id="Shape" d="m52 14c-.188 0-.366.011-.543.022-1.32-4.829-5.767-14.022-20.457-14.022-19.3 0-26.521 10-26.819 10.427-.24708306.3533331-.23988307.8252487.01786403 1.1708797.2577471.3456309.70800171.4871477 1.11713597.3511203.66270115-.2064057 1.34742814-.3339529 2.04-.38-4.0961903 3.2416752-6.44645256 8.2080648-6.356 13.431.00357087.3975239.24227021.7551804.608.911.36992665.1591136.79902388.0832749 1.092-.193.07519496-.065252.15544655-.1244375.24-.177-1.076 2.5-2.2 7.312-.923 15.611.05965618.3677314.31878062.6718159.67239067.7890556.35361006.1172397.74307645.028196 1.01060933-.2310556.29412989-.3185086.68619786-.5296762 1.114-.6.122.021.251.26.287.333.575 1.148-1.639 2.707-1.66 2.721-.32789979.2200912-.49556015.6125442-.42790395 1.0016214.0676562.3890771.3579555.701896.74090395.7983786 2.66471811.5492957 5.43264601.2927289 7.951-.737.5366882.6470492.6890222 1.5305869.4 2.32-.1578064.31056-.1426261.6808618.0400705.9774631s.5065778.4767536.8549295.4755369c1.4075691-.0623035 2.7072899-.7717791 3.521-1.922.6424986.1466387 1.2229753.4907285 1.66.984.863 1 1.141 2.609.829 4.8-.0561429.3906253.1226987.7777368.4565364.9881949.3338376.2104581.7602279.2048975 1.0884636-.0141949 1.3701269-.9277966 2.602015-2.0448791 3.659-3.318 1.1520144 1.207158 1.7920617 2.8133685 1.786 4.482 0 .5522847.4477153 1 1 1 .1073746-.0000947.2140473-.0173109.316-.051 1.4165891-.5122956 2.5826927-1.5484742 3.258-2.895.2942739.6057189.4402904 1.2727332.426 1.946-.0000552.3688869.2029784.707846.528235.881874.3252565.1740279.7199063.1548582 1.026765-.049874 1.0100949-.6836237 1.8955754-1.5352814 2.618-2.518 1.079 1.286 3.11 2.686 6.827 2.686.3342785.00005.6464754-.1669303.832-.445 1.042264-1.7434547 1.5424677-3.7574969 1.437-5.786.5636564.1561151 1.1461305.2338456 1.731.231.4018897-.0016616.7637369-.2437563.918621-.6146054.154884-.3708491.0727076-.7983888-.208621-1.0853946-2.0141814-2.4120766-3.3051883-5.344576-3.724-8.459-.857-5.172-1.032-9.367 4.706-12.176 2.3456948 1.333158 4.9605404 2.1232159 7.652 2.312.3885363.963168.6103682 1.9854207.656 3.023.0000863.4043959.2437275.7689341.6173454.923678.373618.1547439.8036603.0692299 1.0896546-.216678 2.141344-2.3923875 3.3152611-5.4963339 3.293-8.707 0-6.888-3.364-11-9-11zm-10.986 26.165c.3863486 2.4315559 1.1988095 4.7758442 2.4 6.925-.3495518-.159452-.7595485-.1045412-1.0548231.1412723-.2952747.2458135-.4236103.6390595-.3301769 1.0117277.4690726 1.92732.2526942 3.9578122-.612 5.743-4.571-.227-5.415-3.111-5.448-3.229-.1243504-.4877831-.5918981-.807098-1.0914918-.7454416-.4995937.0616563-.8754801.4850618-.8775082.9884416-.1624677.8261589-.6093759 1.5692366-1.263 2.1-.3421698-1.2584285-1.1644168-2.3323765-2.29-2.991-.3094256-.1546231-.6767868-.1383551-.9713335.043014-.2945466.1813691-.4744452.50208-.4756665.847986.0005894.9253308-.4241831 1.7995806-1.152 2.371-.4095208-2.0838439-1.5842729-3.9389035-3.293-5.2-.2387383-.1594049-.534468-.2085245-.8119188-.1348565s-.5098626.2630182-.6380812.5198565c-.519538.8771896-1.189819 1.6557988-1.98 2.3.0125221-1.4935323-.4943936-2.9449938-1.434-4.106-.9430159-1.0585207-2.274621-1.6898696-3.691-1.75-.379026-.0001766-.7255754.2139484-.895.553-.1907057.3929476-.47673.731914-.832.986-.1596276-1.222168-.7087522-2.3603919-1.566-3.246-.3041447-.3044429-.7689521-.3801654-1.154-.188-1.64456979.7987658-3.4574086 1.1894609-5.285 1.139.93026473-.9930254 1.17889019-2.4450453.632-3.691-.31146367-.7380039-.9739618-1.2692808-1.762-1.413-.46177401-.0664052-.93290893-.0073406-1.364.171-1.358-10.981 1.908-14.576 1.933-14.604.28590792-.2859943.37142191-.7160366.21667798-1.0896546-.15474393-.3736179-.51928208-.6172591-.92367798-.6173454-.64934144-.0040422-1.2953723.0927781-1.915.287.45229692-4.7683922 3.19940398-9.0174153 7.362-11.387.3394145-.1691635.5539339-.5157659.5539339-.895s-.2145194-.7258365-.5539339-.895c-.84705726-.3839683-1.77032481-.57033156-2.7-.545 3.147-2.815 10.378-7.565 23.253-7.565 13.218 0 17.272 8.086 18.5 12.438-.6955444.2759202-1.2850646.7663113-1.683 1.4-.036.057-.061.118-.093.176-2.545-.341-4.215-2.008-5.694-3.509-.7896701-.9269365-1.7509417-1.6926262-2.831-2.255l-.04-.019c-.1212595-.0457068-.245148-.0841089-.371-.115-.068-.019-.132-.044-.2-.058-.1935531-.0390428-.390549-.05847439-.588-.058-.9832031-.04852474-1.9644186.1293804-2.868.52-.9932669.3984661-2.064989.5627147-3.132.48-2.8 0-2.99-1.678-3-2 0-.55228475-.4477153-1-1-1s-1 .44771525-1 1c0 1.383 1.045 4 5 4 1.0211689.0357793 2.0422692-.072963 3.033-.323-.0171311.1069518-.028149.2147936-.033.323.0060691 1.4360073 1.0289151 2.6663289 2.4396668 2.9345326 1.4107517.2682038 2.8137234-.5009358 3.3463332-1.8345326 1.6663834 1.9724962 3.9408158 3.3355376 6.466 3.875-.0011004.4984777.0532334.995532.162 1.482-1.4499822-.3146197-2.930317-.467885-4.414-.457-1.894445.0785937-3.7851675-.2275687-5.558-.9-.4500665-.2221565-.9950847-.0762764-1.274.341-.6421529.9636088-.8145213 2.1657773-.469 3.271.5776817 1.2163461 1.726121 2.0625645 3.059 2.254.9172921.2283564 1.8463326.40662 2.783.534 1.454.213 2.144.33 4.287 1.879-5.941 3.434-5.662 8.673-4.814 13.786zm-2.014-27.165c0 .5522847-.4477153 1-1 1s-1-.4477153-1-1 .4477153-1 1-1c.1238528.0014195.2463267.0261857.361.073.016 0 .031.012.047.018.3588112.1603444.5904337.5159945.592.909zm18.6 17.418c-.1757923-.6430256-.413226-1.2675868-.709-1.865-1.107-2.212-4.208-4.3-4.34-4.385-.4595009-.306518-1.0804819-.1825009-1.387.277-.306518.4595009-.1825009 1.080482.277 1.387.8340979.5717285 1.6164303 1.2155298 2.338 1.924-2.2278541-.3688786-4.3415892-1.2432445-6.179-2.556-2.91-2.182-3.871-2.4-5.769-2.675-.8714683-.117128-1.7357891-.2823805-2.589-.495-.641-.161-1.454-.469-1.676-1.029-.0807839-.2361533-.0891416-.4910623-.024-.732 1.7726212.5148565 3.6123706.7612576 5.458.731 1.8925406-.0813188 3.7818446.2231882 5.553.895.3847306.1927528.8496306.1177687 1.1542495-.1861697.3046189-.3039385.3806424-.7686696.1887505-1.1538303-.306-.618-1.033-2.618-.382-3.667.366-.588 1.203-.888 2.486-.888 6.318 0 7 6.294 7 9-.0033549 1.8950293-.4848891 3.7585666-1.4 5.418z"/><path id="Shape" d="m52.293 17.293-1 1c-.2599566.2510745-.3642126.6228779-.2726972.9725073.0915155.3496295.3645604.6226744.7141899.7141899.3496294.0915154.7214328-.0127406.9725073-.2726972l1-1c.3789722-.3923789.3735524-1.0160848-.0121814-1.4018186s-1.0094397-.3911536-1.4018186-.0121814z"/></g></g></g></svg>