<svg xmlns="http://www.w3.org/2000/svg" version="1.1" width="600px" height="600px" viewBox="0 0 200 200" style="overflow:hidden!important;"><defs id="SvgjsDefs4135"><linearGradient id="SvgjsLinearGradient4197" x1="100" y1="171" x2="100" y2="131" gradientUnits="userSpaceOnUse" class="svga-on-canvas-chinshadow-gradient-single-0"><stop id="SvgjsStop4198" stop-opacity="0.8" stop-color="#e1ac8f" offset="0" ></stop><stop id="SvgjsStop4199" stop-opacity="1" stop-color="#c27b55" offset="0.7" ></stop></linearGradient><radialGradient id="SvgjsRadialGradient4201" cx="100" cy="114" r="41" gradientUnits="userSpaceOnUse" class="svga-on-canvas-facehighlight-gradient-single-0"><stop id="SvgjsStop4202" stop-opacity="0.5" stop-color="#ffe4d6" offset="0" ></stop><stop id="SvgjsStop4203" stop-opacity="0" stop-color="#f0c7b1" offset="0.9" ></stop></radialGradient><radialGradient id="SvgjsRadialGradient4205" cx="100" cy="54" r="37" gradientUnits="userSpaceOnUse" class="svga-on-canvas-facehighlight-gradient-single-1"><stop id="SvgjsStop4206" stop-opacity="0.5" stop-color="#ffe4d6" offset="0" ></stop><stop id="SvgjsStop4207" stop-opacity="0" stop-color="#f0c7b1" offset="0.9" ></stop></radialGradient><radialGradient id="SvgjsRadialGradient4290" cx="-568.659" cy="-521.042" r="59.751" gradientTransform="matrix(0.096 -0.0248 0.0245 0.0961 141.2814 119.9893)" gradientUnits="userSpaceOnUse" class="svga-on-canvas-eyesiris-gradient-left-1"><stop id="SvgjsStop4291" stop-opacity="1" stop-color="#ffffff" offset="0" ></stop><stop id="SvgjsStop4292" stop-opacity="0" stop-color="#ffffff" offset="1" ></stop></radialGradient><radialGradient id="SvgjsRadialGradient4294" cx="-582.838" cy="-519.099" r="59.745" gradientTransform="matrix(0.0991 8.856319e-004 -0.0011 0.0991 131.1134 135.9855)" gradientUnits="userSpaceOnUse" class="svga-on-canvas-eyesiris-gradient-left-2"><stop id="SvgjsStop4295" stop-opacity="1" stop-color="#ffffff" offset="0" ></stop><stop id="SvgjsStop4296" stop-opacity="0" stop-color="#ffffff" offset="1" ></stop></radialGradient><linearGradient id="SvgjsLinearGradient4300" x1="122.67" y1="88.268" x2="123.606" y2="87.152" gradientTransform="matrix(1 0 0 1 -52 0)" gradientUnits="userSpaceOnUse" class="svga-on-canvas-eyesiris-gradient-left-5"><stop id="SvgjsStop4301" stop-opacity="1" stop-color="#ffffff" offset="0" ></stop><stop id="SvgjsStop4302" stop-opacity="0" stop-color="#ffffff" offset="1" ></stop></linearGradient><linearGradient id="SvgjsLinearGradient4304" x1="127.212" y1="82.296" x2="126.463" y2="83.189" gradientTransform="matrix(1 0 0 1 -52 0)" gradientUnits="userSpaceOnUse" class="svga-on-canvas-eyesiris-gradient-left-6"><stop id="SvgjsStop4305" stop-opacity="1" stop-color="#ffffff" offset="0" ></stop><stop id="SvgjsStop4306" stop-opacity="0" stop-color="#ffffff" offset="1" ></stop></linearGradient><linearGradient id="SvgjsLinearGradient4308" x1="129.636" y1="79.822" x2="127.91" y2="81.879" gradientTransform="matrix(1 0 0 1 -52 0)" gradientUnits="userSpaceOnUse" class="svga-on-canvas-eyesiris-gradient-left-7"><stop id="SvgjsStop4309" stop-opacity="1" stop-color="#ffffff" offset="0" ></stop><stop id="SvgjsStop4310" stop-opacity="0" stop-color="#ffffff" offset="1" ></stop></linearGradient><radialGradient id="SvgjsRadialGradient4313" cx="-568.654" cy="-521.042" r="59.752" gradientTransform="matrix(0.096 -0.0248 0.0245 0.0961 193.2804 119.9894)" gradientUnits="userSpaceOnUse" class="svga-on-canvas-eyesiris-gradient-right-1"><stop id="SvgjsStop4314" stop-opacity="1" stop-color="#ffffff" offset="0" ></stop><stop id="SvgjsStop4315" stop-opacity="0" stop-color="#ffffff" offset="1" ></stop></radialGradient><radialGradient id="SvgjsRadialGradient4317" cx="-582.833" cy="-519.102" r="59.747" gradientTransform="matrix(0.0991 8.856319e-004 -0.0011 0.0991 183.1126 135.9856)" gradientUnits="userSpaceOnUse" class="svga-on-canvas-eyesiris-gradient-right-2"><stop id="SvgjsStop4318" stop-opacity="1" stop-color="#ffffff" offset="0" ></stop><stop id="SvgjsStop4319" stop-opacity="0" stop-color="#ffffff" offset="1" ></stop></radialGradient><linearGradient id="SvgjsLinearGradient4323" x1="122.67" y1="88.268" x2="123.606" y2="87.152" gradientUnits="userSpaceOnUse" class="svga-on-canvas-eyesiris-gradient-right-5"><stop id="SvgjsStop4324" stop-opacity="1" stop-color="#ffffff" offset="0" ></stop><stop id="SvgjsStop4325" stop-opacity="0" stop-color="#ffffff" offset="1" ></stop></linearGradient><linearGradient id="SvgjsLinearGradient4327" x1="127.212" y1="82.296" x2="126.463" y2="83.189" gradientUnits="userSpaceOnUse" class="svga-on-canvas-eyesiris-gradient-right-6"><stop id="SvgjsStop4328" stop-opacity="1" stop-color="#ffffff" offset="0" ></stop><stop id="SvgjsStop4329" stop-opacity="0" stop-color="#ffffff" offset="1" ></stop></linearGradient><linearGradient id="SvgjsLinearGradient4331" x1="129.636" y1="79.822" x2="127.91" y2="81.879" gradientUnits="userSpaceOnUse" class="svga-on-canvas-eyesiris-gradient-right-7"><stop id="SvgjsStop4332" stop-opacity="1" stop-color="#ffffff" offset="0" ></stop><stop id="SvgjsStop4333" stop-opacity="0" stop-color="#ffffff" offset="1" ></stop></linearGradient><linearGradient id="SvgjsLinearGradient4623" x1="100" y1="142" x2="100" y2="139" gradientUnits="userSpaceOnUse" class="svga-on-canvas-mouth-gradient-single-0"><stop id="SvgjsStop4624" stop-opacity="1" stop-color="#e8b9a0" offset="0.1" ></stop><stop id="SvgjsStop4625" stop-opacity="1" stop-color="#e1ac8f" offset="1" ></stop></linearGradient><radialGradient id="SvgjsRadialGradient5814" cx="127.199" cy="84.835" r="14" gradientTransform="matrix(-1 0 0 1 200 0)" gradientUnits="userSpaceOnUse" class="svga-on-canvas-eyesback-gradient-left-0"><stop id="SvgjsStop5815" stop-opacity="1" stop-color="#ffffff" offset="0" ></stop><stop id="SvgjsStop5816" stop-opacity="1" stop-color="#fdfefe" offset="0.544" ></stop><stop id="SvgjsStop5817" stop-opacity="1" stop-color="#f6f8f9" offset="0.74" ></stop><stop id="SvgjsStop5818" stop-opacity="1" stop-color="#eaeff2" offset="0.879" ></stop><stop id="SvgjsStop5819" stop-opacity="1" stop-color="#d9e3e8" offset="0.992" ></stop><stop id="SvgjsStop5820" stop-opacity="1" stop-color="#d8e2e7" offset="1" ></stop></radialGradient><radialGradient id="SvgjsRadialGradient5822" cx="126.801" cy="84.835" r="14" gradientUnits="userSpaceOnUse" class="svga-on-canvas-eyesback-gradient-right-0"><stop id="SvgjsStop5823" stop-opacity="1" stop-color="#ffffff" offset="0" ></stop><stop id="SvgjsStop5824" stop-opacity="1" stop-color="#fdfefe" offset="0.544" ></stop><stop id="SvgjsStop5825" stop-opacity="1" stop-color="#f6f8f9" offset="0.74" ></stop><stop id="SvgjsStop5826" stop-opacity="1" stop-color="#eaeff2" offset="0.879" ></stop><stop id="SvgjsStop5827" stop-opacity="1" stop-color="#d9e3e8" offset="0.992" ></stop><stop id="SvgjsStop5828" stop-opacity="1" stop-color="#d8e2e7" offset="1" ></stop></radialGradient><radialGradient id="SvgjsRadialGradient5830" cx="127.199" cy="84.835" r="14" gradientTransform="matrix(-1 0 0 1 200 0)" gradientUnits="userSpaceOnUse" class="svga-on-canvas-eyesfront-gradient-left-0"><stop id="SvgjsStop5831" stop-opacity="1" stop-color="#ffffff" offset="0" ></stop><stop id="SvgjsStop5832" stop-opacity="1" stop-color="#fdfefe" offset="0.544" ></stop><stop id="SvgjsStop5833" stop-opacity="1" stop-color="#f6f8f9" offset="0.74" ></stop><stop id="SvgjsStop5834" stop-opacity="1" stop-color="#eaeff2" offset="0.879" ></stop><stop id="SvgjsStop5835" stop-opacity="1" stop-color="#d9e3e8" offset="0.992" ></stop><stop id="SvgjsStop5836" stop-opacity="1" stop-color="#d8e2e7" offset="1" ></stop></radialGradient><radialGradient id="SvgjsRadialGradient5840" cx="125.36" cy="83.943" fx="138.934" fy="82.45" r="18.705" gradientTransform="matrix(0.9998 0.0208 0.0131 -0.6281 -51.791 134.0611)" gradientUnits="userSpaceOnUse" class="svga-on-canvas-eyesfront-gradient-left-3"><stop id="SvgjsStop5841" stop-opacity="1" stop-color="#e1ac8f" offset="0" ></stop><stop id="SvgjsStop5842" stop-opacity="0.3" stop-color="#e1ac8f" offset="0.7" ></stop><stop id="SvgjsStop5843" stop-opacity="0" stop-color="#f0c7b1" offset="1" ></stop></radialGradient><radialGradient id="SvgjsRadialGradient5845" cx="67.679" cy="106.859" r="29.505" gradientTransform="matrix(1.0322 -0.0541 0.0541 1.0322 -5.894 5.3941)" gradientUnits="userSpaceOnUse" class="svga-on-canvas-eyesfront-gradient-left-4"><stop id="SvgjsStop5846" stop-opacity="0" stop-color="#000000" offset="0.95" ></stop><stop id="SvgjsStop5847" stop-opacity="0.2" stop-color="#000000" offset="1" ></stop></radialGradient><radialGradient id="SvgjsRadialGradient5851" cx="126.801" cy="84.835" r="14" gradientUnits="userSpaceOnUse" class="svga-on-canvas-eyesfront-gradient-right-0"><stop id="SvgjsStop5852" stop-opacity="1" stop-color="#ffffff" offset="0" ></stop><stop id="SvgjsStop5853" stop-opacity="1" stop-color="#fdfefe" offset="0.544" ></stop><stop id="SvgjsStop5854" stop-opacity="1" stop-color="#f6f8f9" offset="0.74" ></stop><stop id="SvgjsStop5855" stop-opacity="1" stop-color="#eaeff2" offset="0.879" ></stop><stop id="SvgjsStop5856" stop-opacity="1" stop-color="#d9e3e8" offset="0.992" ></stop><stop id="SvgjsStop5857" stop-opacity="1" stop-color="#d8e2e7" offset="1" ></stop></radialGradient><radialGradient id="SvgjsRadialGradient5861" cx="124.961" cy="83.943" fx="138.535" fy="82.45" r="18.705" gradientTransform="matrix(-0.9998 0.0208 -0.0131 -0.6281 250.9922 134.0695)" gradientUnits="userSpaceOnUse" class="svga-on-canvas-eyesfront-gradient-right-3"><stop id="SvgjsStop5862" stop-opacity="1" stop-color="#e1ac8f" offset="0" ></stop><stop id="SvgjsStop5863" stop-opacity="0.3" stop-color="#e1ac8f" offset="0.7" ></stop><stop id="SvgjsStop5864" stop-opacity="0" stop-color="#f0c7b1" offset="1" ></stop></radialGradient><radialGradient id="SvgjsRadialGradient5866" cx="68.065" cy="106.876" r="29.506" gradientTransform="matrix(-1.0322 -0.0541 -0.0541 1.0322 205.8938 5.3986)" gradientUnits="userSpaceOnUse" class="svga-on-canvas-eyesfront-gradient-right-4"><stop id="SvgjsStop5867" stop-opacity="0" stop-color="#000000" offset="0.95" ></stop><stop id="SvgjsStop5868" stop-opacity="0.2" stop-color="#000000" offset="1" ></stop></radialGradient></defs><g id="svga-group-wrapper"><g id="svga-group-backs-single"><path id="SvgjsPath4188" d="M225 225H-25V-25h250V225z" fill="#ecf0f1" stroke-width="none" opacity="1" stroke="none"></path></g><g id="svga-group-humanwrap-move" transform="matrix(1,0,0,1,0,0)"><g id="svga-group-humanwrap" transform="matrix(1,0,0,1,0,0)"><g id="svga-group-hair-back-move" transform="matrix(1,0,0,1,0,0)"><g id="svga-group-hair-back" transform="matrix(1,0,0,1,0,0)"><path id="SvgjsPath4479" d="M100.5,100.5h-1v-1h1V100.5z" fill="#2a232b" stroke-width="none" opacity="1" stroke="none"></path></g></g><g id="svga-group-humanbody-single"><path id="SvgjsPath4208" d="M195.417 199.778c-2.196-4.746-8.195-11.779-14.86-13.722 -8.239-2.403-26.837-5.308-33.733-6.923 -5.528-1.296-16.662-11.294-20.564-14.65 -0.7-0.6-1.273-1.839-1.287-2.76 -0.139-10.864 4.195-39.724 4.195-39.724H100 70.833c0 0 4.334 28.859 4.193 39.724 -0.011 0.921-0.587 2.16-1.285 2.76 -3.902 3.356-15.036 13.354-20.564 14.65 -6.897 1.615-25.495 4.619-33.733 7.022 -6.667 1.942-12.664 8.876-14.86 13.622 -3.708 8.008-4.584 22.5-4.584 35h100 100C200 222.278 199.123 207.786 195.417 199.778z" fill="#f0c7b1" stroke-width="none" opacity="1" stroke="none"></path><path id="SvgjsPath4209" d="M159.156 184.058c24.342 3.542 34.586 8.708 37.794 50.721H200c0-12.5-0.877-26.992-4.583-35 -2.196-4.746-8.195-11.779-14.86-13.722 -8.239-2.403-26.837-5.308-33.733-6.923 -5.528-1.296-18.242-12.069-21.643-16.35 3.36 4.704 12.791 15.605 21.054 18.46C150.188 182.61 153.48 183.232 159.156 184.058zM53.766 181.244c8.263-2.854 17.693-13.756 21.054-18.46 -3.4 4.28-16.114 15.054-21.643 16.35 -6.896 1.615-25.494 4.619-33.733 7.022 -6.665 1.942-12.664 8.876-14.86 13.622 -3.706 8.008-4.583 22.5-4.583 35h3.05c3.188-41.744 13.475-47.183 37.794-50.721C46.52 183.232 49.813 182.61 53.766 181.244z" fill="#ffe4d6" stroke-width="none" opacity="1" stroke="none"></path><path id="SvgjsPath4210" d="M95.646 197.62c0 0-5.074-1.609-7.083-2.379 -10.449-4.009-44.395-6.607-44.395-6.607s35.754 1.419 43.644 2.779c-0.458-4.767-3.017-20.004-3.017-20.004s5.149 16.815 6.409 21.057C91.878 194.734 95.646 197.62 95.646 197.62zM106.445 196.278c-0.089 0.073-0.191 0.168-0.302 0.268C106.256 196.461 106.358 196.372 106.445 196.278zM95.646 197.62c0 0 2.893 2.992 4.347 3.03 1.91 0.051 4.828-2.899 6.151-4.104 -1.265 0.957-4.159 1.391-5.31 1.436C99.504 198.033 95.646 197.62 95.646 197.62zM116.664 190.101c-1.545 0.248-4.386 0.789-4.386 0.789l2.287-14.89c-0.646 3.071-4.474 16.211-8.12 20.278 1.91-1.616 6.158-2.391 8.324-2.704 10.236-1.484 10.232-1.483 41.062-4.94C155.831 188.634 126.76 188.479 116.664 190.101z" fill="#e1ac8f" stroke-width="none" opacity="1" stroke="none"></path><path id="SvgjsPath4211" d="M195.417 199.778c-2.196-4.746-8.195-11.779-14.86-13.722 -8.239-2.403-26.837-5.308-33.733-6.923 -5.528-1.296-16.662-11.294-20.564-14.65 -0.7-0.6-1.273-1.839-1.287-2.76 -0.139-10.864 4.195-39.724 4.195-39.724H100 70.833c0 0 4.334 28.859 4.193 39.724 -0.011 0.921-0.587 2.16-1.285 2.76 -3.902 3.356-15.036 13.354-20.564 14.65 -6.897 1.615-25.495 4.619-33.733 7.022 -6.667 1.942-12.664 8.876-14.86 13.622 -3.708 8.008-4.584 22.5-4.584 35h100 100C200 222.278 199.123 207.786 195.417 199.778z" fill="none" stroke="#c27b55" stroke-width="1.5" opacity="1"></path></g><g id="svga-group-chinshadow-single"><path id="SvgjsPath4196" d="M100.021 171.866c8.183 0 16.871-4.943 24.199-10.675 -0.001-6.702 1.451-19.105 2.652-28.205 -15.382-2.247-38.406-2.279-53.766-0.152 1.184 8.96 2.625 21.206 2.671 28.02C83.119 166.767 91.822 171.866 100.021 171.866z" fill="url(#SvgjsLinearGradient4197)" opacity="1"></path></g><g id="svga-group-clothes-single"><path id="SvgjsPath5923" d="M128.857 237.978H70.72v-56.183c22.25 4.699 36.88 4.337 58.138 0V237.978z" fill="#f3f1f3" stroke-width="none" opacity="1"></path><path id="SvgjsPath5924" d="M107.44 237.709c-2.775 0-10.727 0.208-16.512-0.23l-0.01-0.171c-0.818-18.658 1.129-30.719 4.537-39.288l0.048-0.123 -0.093-0.093c-0.905-0.904-2.425-1.935-4.034-3.025 -1.611-1.093-3.275-2.221-4.336-3.246 0.625-0.732 1.395-1.454 2.348-2.201 0.245-0.125 1.162-0.843 5.974-4.971 0.214-0.184 0.345-0.296 0.362-0.31 0.818-0.178 2.138-0.293 3.738-0.293 2.183 0 4.731 0.221 6.512 0.563 1.561 1.458 3.451 5.329 4.158 7.17 -0.976 2.291-2.128 3.129-3.717 4.284 -0.774 0.563-1.652 1.201-2.652 2.112l-0.083 0.075 0.021 0.111c4.026 20.31 4.027 25.054 4.027 29.642 0.001 2.021 0.001 6.609 0.339 9.985C107.917 237.707 107.704 237.709 107.44 237.709z" fill="#131111" stroke-width="none" opacity="1"></path><path id="SvgjsPath5925" d="M110.35 191.495c-0.754-1.995-2.71-5.93-4.28-7.359 -2.876-0.563-7.983-0.843-10.47-0.24 -0.108 0.088-6.248 5.383-6.31 5.26 -0.906 0.708-1.788 1.504-2.52 2.39 2.061 2.076 6.655 4.556 8.5 6.4 -3.65 9.18-5.33 21.59-4.55 39.38 0.01 0.11 0.01 0.23 0.02 0.34 6.756 0.52 16.55 0.331 17.55 0.223 -1.16-11.307 1.438-10.455-4.39-39.853C106.968 195.241 108.865 195.04 110.35 191.495zM105.1 210.535c-0.021-0.05-0.04-0.1-0.051-0.13 2 10.55 1.38 18.632 2.891 26.972 -4.736-0.318-12.014-0.052-16.771-0.052 0.369-7.198 1.188-31.684 4.74-39.74 0.17-0.046 0.339-0.084 0.509-0.125l-1.032 34.736 2.747-35.066c0.02-0.002 0.04-0.005 0.06-0.008l1.801 32.605 0.417-32.734c0.026 0.001 0.051-0.001 0.077 0l4.199 36.355 -2.3-36.137c0.314 0.063 0.629 0.141 0.942 0.233 0.03 0 0.07 0.01 0.1 0.03C103.533 198.476 104.365 205.876 105.1 210.535zM104.219 196.726c-2.774-1.251-6.363-1.026-9.129 0.24 -1.681-1.813-4.08-3.077-7.53-5.391 0.55-0.479 1.26-1.07 2.21-1.81 0.08 0 3.48-2.771 3.54-2.83 0.92-0.84 1.74-1.79 2.52-2.62 2.93-0.12 7.23 0.02 9.82 0.14 1.5 1.876 2.931 4.696 4.01 6.94C107.699 194.266 105.759 195.545 104.219 196.726z" fill="#000000" stroke-width="none" opacity="1"></path><path id="SvgjsPath5926" d="M78.196 213.077c-11.534-40.071-6.325-29.581-9.399-45.32 2.028-4.813 3.958-10.44 5.042-11.598l0.08-0.086c2.292 24.007 8.958 13.636 23.784 27.722C89.228 189.449 81.372 204.127 78.196 213.077zM131.193 167.758c-1.448-3.702-4.077-9.127-5.215-10.331 1.424 20.678-15.146 16.551-24.35 26.2 8.812 5.713 17.173 20.66 20.172 29.455C134.92 169.568 127.85 188.673 131.193 167.758z" fill="#f3f1f4" stroke-width="none" opacity="1"></path><path id="SvgjsPath5927" d="M125.801 156.967c0 5.137-0.42 9.162-1.262 10.339 -2.443 5.809-13.103 9.853-16.39 11.51 -2.495 1.227-4.942 2.809-6.83 4.85 3.813 2.476 5.705 3.383 12.93 14.44 4.246 7.109 6.539 12.448 7.561 15.64 13.378-44.331 6.222-24.978 9.59-46.01C129.814 163.65 126.801 157.885 125.801 156.967zM129.449 176.495c-1.957 18.078-3.491 14.485-7.74 34.181 -2.716-8.644-11.075-22.913-19.43-27.091 3.937-2.957 5.031-3.131 9.729-5.279 14.396-6.42 14.985-12.385 14.138-20.271 1.207 1.423 3.125 6.161 4.692 9.521C129.979 170.702 129.589 175.194 129.449 176.495zM79.199 171.896c-4.408-3.649-3.16-8.162-5.189-16.215 -0.902 1-3.146 6.632-5.42 12.055 0.557 2.796 0.681 7.389 0.76 8.84 0.559 12.202 1.75 12.765 8.83 37.16 3.031-8.905 11.558-24.37 20.24-30.009C91.489 177.401 82.765 174.999 79.199 171.896zM84.659 197.405c-2.221 3.666-4.517 7.48-6.37 13.28 -4.442-20.269-5.999-16.964-7.73-34.16 -0.32-2.971-0.617-6.027-1.4-8.96 1.638-3.588 3.981-10.281 4.731-10.995 1.366 7.078 0.066 13.462 5.669 16.995 2.621 1.996 11.104 5.32 17.52 10.36C93.188 186.235 91.094 187.596 84.659 197.405z" fill="#cfc8d7" stroke-width="none" opacity="1"></path><path id="SvgjsPath5928" d="M120.319 209.824l-1.209-2.654c0 0 9.148-28.175 10.743-36.225C130.765 179.299 120.319 209.824 120.319 209.824zM78.879 208.721l1.436-3.259c0 0-8.573-26.467-10.168-34.517C69.235 179.299 78.879 208.721 78.879 208.721z" fill="#e1e0e1" stroke-width="none" opacity="1"></path><path id="SvgjsPath5929" d="M124.787 195.605c7.065-20.834 2.756-22.551 6.305-29.469 0.134-0.261 1.396 1.046 1.533 1.64 1.306 5.658 53.349 17.338 54.994 18.598 1.456 1.058 5.65 3.137 5.65 3.137 4.937 9.07 7.762 10.698 9.15 34.984 0.13 3.083-0.061 11.801-0.061 14.141l-85.559-0.676C117.004 230.169 117.999 216.15 124.787 195.605zM75.213 195.605c-7.065-20.834-2.756-22.551-6.305-29.469 -0.134-0.261-1.396 1.046-1.533 1.64 -1.306 5.658-53.349 17.338-54.994 18.598 -1.456 1.058-5.65 3.137-5.65 3.137 -4.937 9.07-7.762 10.698-9.15 34.984 -0.13 3.083 0.061 11.801 0.061 14.141l85.559-0.676C82.996 230.169 82.001 216.15 75.213 195.605z" fill="#5e4352" stroke-width="none" opacity="1" stroke="none"></path><path id="SvgjsPath5930" d="M130.307 190c-4.552 16.387-10.771 31.116-13.506 47.96 -0.89-0.007 1.491-22.695 7.986-42.354 7.065-20.834 2.756-22.551 6.305-29.469 0.077-0.15-0.619 1.976-0.223 2.432C130.723 176.296 132.625 182.272 130.307 190zM69.693 190c4.552 16.387 10.771 31.116 13.506 47.96 0.89-0.007-1.491-22.695-7.986-42.354 -7.065-20.834-2.756-22.551-6.305-29.469 -0.077-0.15 0.619 1.976 0.223 2.432C69.277 176.296 67.375 182.272 69.693 190z" fill="#4f3041" stroke-width="none" opacity="1" stroke="none"></path><path id="SvgjsPath5931" d="M152.436 186.031c0 0-2.284 2.561-8.636 6.923 5.313-5.885 7.761-8.249 7.761-8.249L152.436 186.031zM154.611 197.906l-1.528-1.367c-4.538 13.781-7.571 20.587-12.828 36.618C147.799 218.831 149.599 213.745 154.611 197.906zM48.439 184.705c0 0 2.447 2.364 7.761 8.249 -6.352-4.362-8.636-6.923-8.636-6.923L48.439 184.705zM59.745 233.157c-5.257-16.031-8.29-22.837-12.828-36.618l-1.528 1.367C50.401 213.745 52.201 218.831 59.745 233.157z" fill="#3f2132" stroke-width="none" opacity="1" stroke="none"></path><path id="SvgjsPath5932" d="M179.409 219.335c0-11.596 3.11-18.351 9.615-28.142 0.608 0.372 0.931 0.543 1.345 0.875C183.452 200.651 182.078 208.659 179.409 219.335zM141.312 230.703c6.113-16.703 8.06-23.228 12.107-34.388 -1.15-0.351-8.671-2.985-9.819-3.346 0.41 1 3.113 1.822 7.822 4.709C151.422 197.679 146.333 213.082 141.312 230.703zM149.533 184.577c0 0-3.352 4.14-6.664 8.328 3.388-2.67 5.748-5.644 8.691-8.2 -3.994-3.368-10.511-8.524-14.721-12.089C140.163 176.188 149.533 184.577 149.533 184.577zM202.073 238.634l0.286 0.002c0-2.34 0.19-11.058 0.061-14.141 -1.389-24.286-4.214-25.914-9.15-34.984 0 0-4.194-2.079-5.65-3.137 -1.334-1.021-38.794-9.922-52.49-15.88 16.011 10.971 46.282 15.027 55.24 21.574C194.702 195.235 200.535 222.337 202.073 238.634zM9.613 192.037c0.542-0.383 0.619-0.366 1.168-0.729 6.505 9.791 9.809 16.431 9.809 28.026C17.922 208.659 16.08 200.318 9.613 192.037zM48.578 197.679c4.709-2.887 7.412-3.709 7.822-4.709 -1.148 0.36-8.669 2.995-9.819 3.346 4.048 11.16 5.994 17.685 12.107 34.388C53.667 213.082 48.578 197.679 48.578 197.679zM63.16 172.616c-4.21 3.564-10.727 8.721-14.721 12.089 2.943 2.557 5.304 5.53 8.691 8.2 -3.313-4.188-6.664-8.328-6.664-8.328S59.837 176.188 63.16 172.616zM9.631 192.068c8.958-6.547 39.229-10.604 55.24-21.574 -13.696 5.958-51.156 14.858-52.49 15.88 -1.456 1.058-5.65 3.137-5.65 3.137 -4.937 9.07-7.762 10.698-9.15 34.984 -0.13 3.083 0.061 11.801 0.061 14.141l0.286-0.002C-0.535 222.337 5.298 195.235 9.631 192.068z" fill="#6d5964" stroke-width="none" opacity="1" stroke="none"></path><path id="SvgjsPath5933" d="M132.246 166.374c-0.049-0.293-0.443-0.634-0.738-0.657 -0.296-0.023-0.432 0.458-0.567 0.722 -3.549 6.918 0.414 8.333-6.651 29.167 -6.788 20.545-7.584 34.862-7.787 42.653l85.857 0.377c0-2.34 0.489-11.058 0.359-14.141 -1.389-24.286-4.313-26.113-9.25-35.184 0 0-4.394-2.179-5.85-3.236 -4.889-3.742-0.59 0.023-22.03-6 -17.576-5.135-18.525-6.577-24.899-8.35 -1.288-0.369-4.057-0.822-6.95-2.851C133.475 168.689 132.341 166.944 132.246 166.374zM116.974 237.31c3.729-23.564 6.085-29.73 11.296-47.274 3.522-11.104 1.576-17.408 3.254-22.54 0.088-0.268 0.467-0.282 0.571-0.017 2.434 6.214 9.238 7.656 18.834 17.047 -5.813 5.813-7.309 7.38-8.06 8.38 0.864 0.438 5.582 2.229 9.9 3.9 -0.245 0.767-13.415 38.02-13.57 38.52 10-21.578 11.292-28.211 14.22-39.01 -0.812-0.612-7.892-3.212-9.09-3.64 4.274-4.424 5.51-5.396 7.53-7.971 1.622 0-15.874-13.318-16.73-14.211 0.462 0.364 2.752 1.391 3.01 1.491 14.682 5.166 3.065 2.829 35.2 12.001 3.072 0.781 7.355 1.567 10.53 1.879 0.218 0.02 5.395 2.727 8.35 3.97 -7.189 7.475-11.797 17.133-12.81 29.5 3.219-12.666 4.951-19.29 13.14-28.819 7.62 15.422 6.755 13.195 9.23 47.71C181.167 237.413 149.559 237.227 116.974 237.31zM66.261 168.875c-2.894 2.028-5.662 2.481-6.95 2.851 -6.374 1.772-7.323 3.215-24.899 8.35 -21.44 6.023-17.142 2.258-22.03 6 -1.456 1.058-5.85 3.236-5.85 3.236 -4.937 9.07-7.861 10.897-9.25 35.184 -0.13 3.083 0.359 11.801 0.359 14.141l85.857-0.377c-0.203-7.791-0.999-22.108-7.787-42.653 -7.065-20.834-3.103-22.249-6.651-29.167 -0.136-0.264-0.271-0.745-0.567-0.722 -0.295 0.023-0.689 0.364-0.738 0.657C67.659 166.944 66.525 168.689 66.261 168.875zM-1.779 238.226c2.476-34.515 1.61-32.288 9.23-47.71 8.188 9.529 9.921 16.153 13.14 28.819 -1.013-12.367-5.62-22.025-12.81-29.5 2.955-1.243 8.132-3.95 8.35-3.97 3.175-0.312 7.458-1.098 10.53-1.879 32.135-9.172 20.519-6.835 35.2-12.001 0.258-0.101 2.548-1.127 3.01-1.491 -0.856 0.893-18.353 14.211-16.73 14.211 2.021 2.575 3.256 3.547 7.53 7.971 -1.198 0.428-8.278 3.027-9.09 3.64 2.928 10.799 4.22 17.432 14.22 39.01 -0.155-0.5-13.325-37.753-13.57-38.52 4.318-1.672 9.036-3.463 9.9-3.9 -0.751-1-2.247-2.567-8.06-8.38 9.596-9.391 16.4-10.833 18.834-17.047 0.104-0.266 0.483-0.251 0.571 0.017 1.678 5.132-0.269 11.436 3.254 22.54 5.211 17.544 7.567 23.71 11.296 47.274C50.441 237.227 18.833 237.413-1.779 238.226z" fill="#301424" stroke-width="none" opacity="1" stroke="none"></path></g><g id="svga-group-head" transform="matrix(1,0,0,1,0,0)"><g id="svga-group-ears-left-move" transform="matrix(1,0,0,1,0,0)"><g id="svga-group-ears-left" transform="matrix(1,0,0,1,0,0)"><path id="SvgjsPath4653" d="M47.001 83.231c-1.376-2.453-5.638-8.48-9.98-7.003 -2.749 0.935-3.293 3.993-3.735 6.693 -0.588 3.591 0.471 10.694 1.389 13.26 0.881 2.467 3.533 7.23 5.264 9.045 2.13 2.225 4.775 9.324 5.194 10.061 0.66 1.162 1.536 2.911 4.122 2.692 2.853-0.244 4.584-1.85 5.856-2.121C58.253 115.192 50.582 89.616 47.001 83.231z" fill="#f0c7b1" stroke="#c27b55" stroke-width="1.5" opacity="1"></path><path id="SvgjsPath4654" d="M44.197 98.104c-0.132-0.581 0.007-1.56 0.142-2.504 0.124-0.861 0.24-1.675 0.169-2.251 -0.267-2.154-1.773-6.249-2.757-8.467 -1.132-2.554-2.963-5.77-5.262-6.599 -0.95-0.343-1.575 0.067-1.938 0.484 -0.266 0.305-0.325 0.665-0.238 0.707 0.086 0.042 0.285-0.254 0.572-0.535 0.235-0.229 0.579-0.426 1.051-0.385 -0.19 1.073-1.167 6.883-0.744 10.845 0.333 3.115 1.593 5.442 1.79 5.791 0.029 0.367 0.077 0.726 0.148 1.075 0.929 4.547 4.971 9.717 6.378 11.409 0.259 0.313 0.531 0.497 0.598 0.423 0.066-0.076-0.094-0.387-0.353-0.7 -1.388-1.679-5.391-6.831-6.289-11.218 -0.952-4.656 2.318-11.556 3.048-13.017 0.371 0.685 0.687 1.344 0.93 1.893 0.19 0.431 0.402 0.936 0.619 1.479 -0.429 0.762-3.434 6.32-2.338 10.767 0.406 1.641 2.235 3.755 3.447 4.333 0.667 0.32 0.919 0.797 1.209 1.349 0.336 0.64 0.718 1.365 1.828 1.892 0.225 0.108 0.429 0.151 0.61 0.151 0.313 0 0.551-0.135 0.725-0.293 0.018 0.28 0.017 0.64 0.009 0.97 -0.012 0.431 0.042 0.783 0.137 0.791 0.094 0.008 0.196-0.332 0.207-0.76 0.016-0.526 0.013-1.177-0.072-1.488 -0.248-0.917-1.008-1.953-1.813-3.048C45.221 100.116 44.403 99.003 44.197 98.104zM36.95 94.073c-2.177-7.139 0.656-13.3 1.144-14.28 0.85 0.822 1.6 1.919 2.21 2.995C39.86 83.646 37.041 89.271 36.95 94.073zM46.341 104.515c-1.004-0.475-1.339-1.115-1.666-1.733 -0.293-0.559-0.598-1.136-1.369-1.505 -0.168-0.081-0.352-0.203-0.542-0.343 -2.486-6.263 0.272-9.001 0.963-9.562 0.211 0.766 0.369 1.468 0.439 2.031 0.063 0.517-0.052 1.339-0.167 2.134 -0.142 0.985-0.286 2.004-0.137 2.664 0.226 0.982 1.069 2.131 1.884 3.242 0.723 0.986 1.466 2.003 1.721 2.832C47.359 104.439 47.017 104.836 46.341 104.515z" fill="#c27b55" stroke-width="none" opacity="1"></path></g></g><g id="svga-group-ears-right-move" transform="matrix(1,0,0,1,0,0)"><g id="svga-group-ears-right" transform="matrix(1,0,0,1,0,0)"><path id="SvgjsPath4655" d="M152.736 83.231c1.377-2.453 5.639-8.48 9.98-7.003 2.75 0.935 3.293 3.993 3.736 6.693 0.588 3.591-0.471 10.694-1.389 13.26 -0.881 2.467-3.533 7.23-5.266 9.045 -2.129 2.225-4.775 9.324-5.193 10.061 -0.658 1.162-1.535 2.911-4.121 2.692 -2.854-0.244-4.584-1.85-5.857-2.121C141.484 115.192 149.156 89.616 152.736 83.231z" fill="#f0c7b1" stroke="#c27b55" stroke-width="1.5" opacity="1"></path><path id="SvgjsPath4656" d="M153.727 101.196c-0.805 1.096-1.564 2.131-1.813 3.048 -0.086 0.311-0.088 0.962-0.072 1.488 0.012 0.428 0.113 0.768 0.207 0.76s0.148-0.36 0.137-0.791c-0.008-0.331-0.008-0.69 0.01-0.97 0.174 0.158 0.412 0.293 0.725 0.293 0.182 0 0.385-0.043 0.609-0.151 1.109-0.526 1.492-1.252 1.828-1.892 0.289-0.552 0.543-1.028 1.209-1.349 1.213-0.578 3.041-2.692 3.447-4.333 1.096-4.447-1.908-10.005-2.338-10.767 0.217-0.544 0.43-1.049 0.619-1.479 0.244-0.549 0.559-1.208 0.93-1.893 0.73 1.46 4 8.361 3.049 13.017 -0.896 4.387-4.9 9.539-6.289 11.218 -0.258 0.313-0.418 0.624-0.352 0.7 0.066 0.074 0.338-0.109 0.598-0.423 1.406-1.692 5.449-6.862 6.379-11.409 0.07-0.35 0.117-0.708 0.146-1.075 0.197-0.349 1.459-2.676 1.791-5.791 0.422-3.961-0.555-9.772-0.744-10.845 0.473-0.042 0.814 0.156 1.051 0.385 0.287 0.281 0.486 0.577 0.572 0.535 0.086-0.042 0.027-0.402-0.238-0.707 -0.363-0.417-0.988-0.827-1.938-0.484 -2.299 0.83-4.131 4.045-5.262 6.599 -0.984 2.218-2.49 6.313-2.758 8.467 -0.072 0.576 0.045 1.39 0.17 2.251 0.135 0.945 0.273 1.924 0.141 2.504C155.336 99.003 154.518 100.116 153.727 101.196zM159.434 82.787c0.611-1.075 1.361-2.173 2.211-2.995 0.488 0.98 3.32 7.141 1.145 14.28C162.697 89.271 159.879 83.646 159.434 82.787zM152.27 104.275c0.254-0.829 0.998-1.846 1.721-2.832 0.816-1.111 1.658-2.26 1.885-3.242 0.148-0.66 0.004-1.679-0.137-2.664 -0.115-0.795-0.23-1.617-0.166-2.134 0.068-0.563 0.227-1.266 0.438-2.031 0.691 0.561 3.449 3.299 0.965 9.562 -0.191 0.14-0.375 0.263-0.543 0.343 -0.771 0.369-1.074 0.946-1.369 1.505 -0.326 0.618-0.662 1.258-1.666 1.733C152.721 104.836 152.379 104.439 152.27 104.275z" fill="#c27b55" stroke-width="none" opacity="1"></path></g></g><g id="svga-group-faceshape-wrap" transform="matrix(1,0,0,1,0,0)"><g id="svga-group-faceshape-single"><path id="SvgjsPath4189" d="M158.785 78.006l-0.005 0c-0.01 0.046-12.197 40.27-15.879 52.418 -0.715 2.358-1.931 4.551-3.556 6.386 -6.375 7.194-23.768 25.057-39.324 25.057 -15.849 0-33.591-19.045-39.708-26.214 -1.442-1.688-2.507-3.633-3.172-5.765 -3.607-11.551-16.126-51.648-16.137-51.694h-0.001c-1.298-4.992-1.994-10.231-2.002-15.634C38.949 28.536 66.155 0.92 99.773 0.867c33.621-0.053 60.913 27.476 60.964 61.499C160.746 67.769 160.068 73.01 158.785 78.006z" fill="#f0c7b1" stroke-width="none" opacity="1" stroke="none"></path><path id="SvgjsPath4190" d="M132.168 10.26c14.31 11.135 23.671 29.457 23.699 50.208 0.009 5.404-0.615 10.645-1.796 15.641l-0.004 0c-0.009 0.046-11.223 40.27-14.608 52.417 -0.658 2.358-1.776 4.551-3.271 6.385 -5.865 7.195-21.866 25.059-36.178 25.059 -14.582 0-30.904-19.047-36.531-26.215 -1.327-1.689-2.306-3.633-2.918-5.764 -3.318-11.552-14.836-51.649-14.846-51.695h-0.001c-1.194-4.992-1.834-10.231-1.842-15.634 -0.029-20.827 9.348-39.239 23.713-50.412C50.392 21.159 38.967 40.508 39.001 62.56c0.008 5.403 0.704 10.643 2.002 15.634h0.001c0.01 0.046 12.53 40.143 16.137 51.694 0.666 2.132 1.73 4.076 3.172 5.765 6.116 7.169 23.858 26.214 39.708 26.214 15.557 0 32.949-17.862 39.324-25.057 1.625-1.835 2.841-4.027 3.556-6.386 3.682-12.148 15.869-52.372 15.879-52.418l0.005 0c1.283-4.997 1.961-10.237 1.952-15.641C160.704 40.389 149.297 21.135 132.168 10.26z" fill="#e8b9a0" stroke-width="none" opacity="1" stroke="none"></path><path id="SvgjsPath4191" d="M158.785 78.006l-0.005 0c-0.01 0.046-12.197 40.27-15.879 52.418 -0.715 2.358-1.931 4.551-3.556 6.386 -6.375 7.194-23.768 25.057-39.324 25.057 -15.849 0-33.591-19.045-39.708-26.214 -1.442-1.688-2.507-3.633-3.172-5.765 -3.607-11.551-16.126-51.648-16.137-51.694h-0.001c-1.298-4.992-1.994-10.231-2.002-15.634C38.949 28.536 66.155 0.92 99.773 0.867c33.621-0.053 60.913 27.476 60.964 61.499C160.746 67.769 160.068 73.01 158.785 78.006z" fill="none" stroke="#c27b55" stroke-width="1.5" opacity="1"></path></g></g><g id="svga-group-mouth-single-move" transform="matrix(1,0,0,1,0,0)"><g id="svga-group-mouth-single" transform="matrix(1,0,0,1,0,0)"><path id="SvgjsPath4622" d="M100.2 142.947c-2.832 0.144-3.644-2.753-3.644-2.753s3.931 0.565 6.991-0.353C103.548 139.842 102.692 142.822 100.2 142.947z" fill="url(#SvgjsLinearGradient4623)" opacity="1"></path><path id="SvgjsPath4626" d="M100.488 140.76c-1.984 0.1-3.765-0.077-3.877-0.089 -0.138-0.014-0.238-0.136-0.224-0.272 0.015-0.138 0.143-0.233 0.274-0.224 0.041 0.003 4.096 0.405 6.738-0.337 0.131-0.032 0.271 0.041 0.309 0.174s-0.04 0.27-0.173 0.308C102.601 140.582 101.517 140.708 100.488 140.76z" fill="#c27b55" stroke-width="none" opacity="1" stroke="none"></path><path id="SvgjsPath4627" d="M82.5 130.299c0 0 12.532 1.486 16.718 1.499 4.553 0.012 19.282-1.499 19.282-1.499 -4.258 3.534-8.943 6.932-19.555 6.999C89.453 137.359 87.021 133.912 82.5 130.299z" fill="#ffffff" stroke-width="none" opacity="1"></path><path id="SvgjsPath4628" d="M82.5 130.299c0 0 12.532 1.486 16.718 1.499 4.553 0.012 19.282-1.499 19.282-1.499 -4.258 3.534-8.943 6.932-19.555 6.999C89.453 137.359 87.021 133.912 82.5 130.299z" fill="none" stroke="#c27b55" stroke-width="0.75" opacity="1"></path></g></g><g id="svga-group-eyes-left-move" transform="matrix(1,0,0,1,0,0)"><g id="svga-group-eyes-left" transform="matrix(1,0,0,1,0,0)"><g id="svga-group-eyesback-left"><path id="SvgjsPath5813" d="M78.863 89.23c-4.31 0.755-7.656 0.71-10.688-0.204 -3.127-0.943-7.188-4.825-8.596-8.495 3.715-0.277 11.349-0.597 14.89-0.154 4.688 0.586 9.474 2.406 12.305 5.236 -0.016 0.294-0.053 0.583-0.087 0.872C84.401 88.032 81.166 88.826 78.863 89.23z" fill="url(#SvgjsRadialGradient5814)" opacity="1"></path></g><g id="svga-group-eyesiriswrapper-left" transform="matrix(1,0,0,1,0.25,0.25)"><g id="svga-group-eyesiriscontrol-left" transform="matrix(1,0,0,1,0,0)"><g id="svga-group-eyesiris-left" transform="matrix(1,0,0,1,0,0)"><path id="SvgjsPath4379" d="M80 84c0 3.313-2.687 5.999-6 5.999S68 87.313 68 84c0-3.316 2.687-6.001 6-6.001S80 80.685 80 84z" fill="#242527" stroke-width="none" opacity="1" stroke="none"></path><path id="SvgjsPath4380" d="M70.512 86.805c0.875-0.072 0.1-0.306 0.1-0.306 -0.433-0.233-1.248-0.592-1.248-0.921 0-1.031 1.414-1.299-0.034-1.705 -1.504-1.38 1.167-1.352 1.147-1.398 -0.975-2.376 0.299-1.071 0.835-1.773 1.988-2.599 0.554 0.267 1.633 0 0.391-0.096-0.78-1.531 0.034-1.33 0.539 0.132 0.662 0.58 0.662 0.58 0.393-0.077 1.008-0.682 1.008-0.682 0.749 0.226 1.275 1.29 1.043 1.091 0.368-0.045 0.884-0.221 1.286-0.341 0 0 0.07-0.239 0.139-0.033 0.917 2.661 3.284 2.47 0.559 3.24 0 0-0.176 0 0.382 0.442 2.71 2.164-2.102 1.495 0.451 2.49 0.104-0.104-1.53 0.965-1.53 1.261 0 0.501-1.042 1.818-1.946 1.3 -0.504-0.288-0.581 0.6-0.877 0.19 -0.581-0.803-1.742-0.035-1.313-0.773 0.634-0.521-0.654 0.204-0.904 0.204 -0.828 0 1.083-2.783 3.894-0.715 0.822 0.602-0.864-1.433 0.625-1.433 0.149 0.049 0.104-0.521 0.104-0.682 -0.774-0.151 1.39-0.003 1.39-1.262 0.137 0.027 0.509-0.35-1.635 0 0 0-0.068-0.75-0.034-0.886 0.11-0.438 1.214-0.298 0.904-0.75 0-0.001-0.799-1.604-0.799-1.604 -2.573-0.414-1.102-0.672-2.711-0.341 -0.076 0.378-3.445 1.984-3.338 2.729 0.1 0.702 2.115 0.938 0.208 2.182C73.405 91.051 68.437 85.454 70.512 86.805z" fill="#363636" stroke-width="none" opacity="1" stroke="none"></path><path id="SvgjsPath4381" d="M74 78.749l0.171 4.393 1.837-3.993 -1.523 4.123 3.227-2.985 -2.985 3.226 4.124-1.523 -3.992 1.839 4.392 0.17 -4.392 0.17 3.992 1.839 -4.124-1.523 2.985 3.226 -3.227-2.985 1.523 4.123 -1.837-3.993L74 89.249l-0.171-4.393 -1.838 3.993 1.522-4.123 -3.226 2.985 2.985-3.226 -4.124 1.523 3.992-1.839 -4.39-0.17 4.39-0.17 -3.992-1.839 4.124 1.523 -2.985-3.226 3.226 2.985 -1.522-4.123 1.838 3.993L74 78.749z" fill="#060708" stroke-width="none" opacity="1" stroke="none"></path><path id="SvgjsPath4382" d="M74.796 80.067l-0.539 3.315 1.981-2.711 -1.766 2.857 2.87-1.748 -2.725 1.964 3.319-0.515L74.668 84l3.266 0.794 -3.317-0.538 2.712 1.982 -2.858-1.765 1.748 2.869 -1.964-2.725 0.516 3.319 -0.771-3.27 -0.795 3.264 0.539-3.315 -1.984 2.711 1.768-2.857 -2.869 1.748 2.725-1.964 -3.319 0.516 3.269-0.771 -3.264-0.793 3.315 0.537 -2.712-1.982 2.858 1.765 -1.747-2.869 1.964 2.725 -0.516-3.318 0.772 3.27L74.796 80.067z" fill="#000000" stroke-width="none" opacity="1" stroke="none"></path><path id="SvgjsPath4383" d="M76.25 84c0 1.243-1.008 2.25-2.25 2.25s-2.25-1.007-2.25-2.25 1.008-2.25 2.25-2.25S76.25 82.757 76.25 84z" fill="#000000" stroke-width="none" opacity="0.9"></path><path id="SvgjsPath4384" d="M71.637 88.311c-0.331 0.332-0.985 0.215-1.46-0.261 -0.476-0.475-0.593-1.129-0.261-1.461 0.331-0.331 0.985-0.214 1.46 0.261C71.852 87.326 71.969 87.979 71.637 88.311z" fill="#ffffff" stroke-width="none" opacity="0.7"></path><path id="SvgjsPath4385" d="M78.806 82.818c-0.496 0.496-1.697 0.1-2.682-0.886 -0.986-0.986-1.382-2.187-0.886-2.683 0.496-0.496 1.697-0.1 2.682 0.886C78.906 81.122 79.302 82.322 78.806 82.818z" fill="#ffffff" stroke-width="none" opacity="0.9"></path></g></g></g><g id="svga-group-eyesfront-left"><path id="SvgjsPath5838" d="M55.8 85.001c0 13.808 8.06 24.999 18 24.999s18-11.191 18-24.999C91.8 71.192 83.74 60 73.8 60S55.8 71.192 55.8 85.001zM59.58 80.531c3.715-0.277 11.349-0.597 14.89-0.154 4.952 0.619 10.04 2.6 12.788 5.71 -2.289 1.82-5.897 2.705-8.395 3.143 -4.31 0.755-7.656 0.71-10.688-0.204C65.049 88.083 60.988 84.201 59.58 80.531z" fill="#f0c7b1" stroke-width="none" opacity="1"></path><path id="SvgjsPath5839" d="M55.942 83.916c0.027 8.284 8.484 14.962 18.902 14.919 10.414-0.047 18.836-6.796 18.813-15.08 -0.027-8.285-8.486-14.963-18.902-14.92C64.339 68.882 55.919 75.631 55.942 83.916zM59.58 80.531c3.715-0.277 11.349-0.597 14.89-0.154 4.952 0.619 10.04 2.6 12.788 5.71 -2.289 1.82-5.897 2.705-8.395 3.143 -4.31 0.755-7.656 0.71-10.688-0.204C65.049 88.083 60.988 84.201 59.58 80.531z" fill="url(#SvgjsRadialGradient5840)" opacity="1"></path><path id="SvgjsPath5844" d="M59.58 80.531c3.715-0.277 11.349-0.597 14.89-0.154 4.952 0.619 10.04 2.6 12.788 5.71 -2.289 1.82-5.897 2.705-8.395 3.143 -4.31 0.755-7.656 0.71-10.688-0.204C65.049 88.083 60.988 84.201 59.58 80.531z" fill="url(#SvgjsRadialGradient5845)" opacity="1"></path><path id="SvgjsPath5848" d="M67.563 77.096c10.603-0.48 13.849 1.478 18.339 4.3C78.442 77.023 69.03 77.042 67.563 77.096zM59.597 84.153c2.854 5.494 4.797 4.894 7.531 6.058 0.025 0.009-1.51-0.579-2.664-1.196C61.474 87.296 61.108 86.564 59.597 84.153z" fill="#c27b55" stroke-width="none" opacity="1"></path><path id="SvgjsPath5849" d="M58.468 79.966c2.857 5.992 4.761 9.926 14.332 10.071 7.283 0.109 11.794-0.564 15.584-3.374 -3.395-5.194-7.754-6.771-13.57-7.358C68.915 78.709 58.468 79.966 58.468 79.966zM60.505 80.827c3.467-0.258 10.59-0.557 13.895-0.144 4.621 0.577 9.369 2.426 11.934 5.328 -2.137 1.699-5.504 2.524-7.834 2.933 -4.021 0.705-7.145 0.663-9.973-0.19C65.608 87.875 61.819 84.252 60.505 80.827z" fill="#000000" stroke-width="none" opacity="1"></path></g></g></g><g id="svga-group-eyes-right-move" transform="matrix(1,0,0,1,0,0)"><g id="svga-group-eyes-right" transform="matrix(1,0,0,1,0,0)"><g id="svga-group-eyesback-right"><path id="SvgjsPath5821" d="M120.737 89.23c4.31 0.755 7.656 0.71 10.688-0.204 3.127-0.943 7.188-4.825 8.596-8.495 -3.715-0.277-11.349-0.597-14.89-0.154 -4.688 0.586-9.474 2.406-12.305 5.236 0.016 0.294 0.053 0.583 0.087 0.872C115.199 88.032 118.435 88.826 120.737 89.23z" fill="url(#SvgjsRadialGradient5822)" opacity="1"></path></g><g id="svga-group-eyesiriswrapper-right" transform="matrix(1,0,0,1,-0.25,0.25)"><g id="svga-group-eyesiriscontrol-right" transform="matrix(1,0,0,1,0,0)"><g id="svga-group-eyesiris-right" transform="matrix(1,0,0,1,0,0)"><path id="SvgjsPath4386" d="M132,83.999c0,3.316-2.684,6-6,6s-6-2.684-6-6s2.684-6,6-6S132,80.683,132,83.999z" fill="#242527" stroke-width="none" opacity="1" stroke="none"></path><path id="SvgjsPath4387" d="M122.508 86.806c0.879-0.076 0.105-0.305 0.105-0.305 -0.434-0.234-1.254-0.592-1.254-0.926 0-1.031 1.418-1.295-0.023-1.705 -1.512-1.377 1.16-1.348 1.137-1.395 -0.973-2.379 0.305-1.072 0.844-1.775 1.98-2.596 0.551 0.27 1.629 0 0.387-0.094-0.785-1.529 0.035-1.33 0.539 0.135 0.656 0.58 0.656 0.58 0.398-0.076 1.008-0.68 1.008-0.68 0.75 0.223 1.277 1.289 1.043 1.09 0.375-0.047 0.891-0.223 1.289-0.34 0 0 0.07-0.24 0.141-0.035 0.914 2.66 3.281 2.473 0.563 3.24 0 0-0.176 0 0.375 0.439 2.707 2.168-2.098 1.494 0.457 2.49 0.105-0.1-1.535 0.967-1.535 1.266 0 0.498-1.043 1.816-1.945 1.295 -0.504-0.287-0.586 0.604-0.879 0.193 -0.574-0.803-1.746-0.035-1.313-0.773 0.633-0.521-0.656 0.205-0.902 0.205 -0.832 0 1.078-2.783 3.891-0.715 0.82 0.598-0.867-1.436 0.633-1.436 0.141 0.047 0.105-0.521 0.105-0.68 -0.785-0.152 1.383-0.006 1.383-1.266 0.141 0.029 0.516-0.346-1.629 0 0 0-0.07-0.75-0.035-0.885 0.105-0.439 1.207-0.299 0.902-0.75l-0.797-1.605c-2.578-0.41-1.102-0.668-2.719-0.34 -0.07 0.381-3.445 1.986-3.34 2.73 0.105 0.703 2.121 0.938 0.211 2.18C125.402 91.054 120.434 85.452 122.508 86.806z" fill="#363636" stroke-width="none" opacity="1" stroke="none"></path><path id="SvgjsPath4388" d="M126 78.749l0.176 4.395 1.828-3.996 -1.523 4.125 3.234-2.988 -2.988 3.229 4.125-1.523 -3.996 1.84 4.395 0.17 -4.395 0.17 3.996 1.84 -4.125-1.523 2.988 3.229 -3.234-2.988 1.523 4.125 -1.828-3.996L126 89.249l-0.176-4.395 -1.84 3.996 1.523-4.125 -3.223 2.988 2.988-3.229 -4.125 1.523 3.996-1.84 -4.395-0.17 4.395-0.17 -3.996-1.84 4.125 1.523 -2.988-3.229 3.223 2.988 -1.523-4.125 1.84 3.996L126 78.749z" fill="#060708" stroke-width="none" opacity="1" stroke="none"></path><path id="SvgjsPath4389" d="M126.797 80.067l-0.539 3.316 1.98-2.713 -1.77 2.859 2.871-1.752 -2.719 1.969 3.316-0.516 -3.27 0.768 3.27 0.797 -3.316-0.539 2.707 1.98 -2.859-1.764 1.746 2.871 -1.957-2.725 0.516 3.316L126 84.667l-0.797 3.264 0.539-3.316 -1.98 2.713 1.77-2.859 -2.871 1.752 2.719-1.969 -3.316 0.516 3.27-0.768 -3.27-0.797 3.316 0.539 -2.707-1.98 2.859 1.764 -1.746-2.871 1.957 2.725 -0.516-3.316 0.773 3.27L126.797 80.067z" fill="#000000" stroke-width="none" opacity="1" stroke="none"></path><path id="SvgjsPath4390" d="M128.25 83.999c0 1.242-1.008 2.25-2.25 2.25s-2.25-1.008-2.25-2.25 1.008-2.25 2.25-2.25S128.25 82.757 128.25 83.999z" fill="#000000" stroke-width="none" opacity="0.9"></path><path id="SvgjsPath4391" d="M123.633 88.312c-0.328 0.328-0.984 0.217-1.453-0.264 -0.48-0.475-0.598-1.125-0.258-1.459 0.328-0.328 0.984-0.211 1.453 0.264C123.855 87.327 123.973 87.978 123.633 88.312z" fill="#ffffff" stroke-width="none" opacity="0.7"></path><path id="SvgjsPath4392" d="M130.805 82.815c-0.492 0.498-1.699 0.105-2.684-0.885 -0.984-0.984-1.383-2.186-0.879-2.678 0.492-0.498 1.688-0.105 2.672 0.885C130.91 81.122 131.297 82.323 130.805 82.815z" fill="#ffffff" stroke-width="none" opacity="0.9"></path></g></g></g><g id="svga-group-eyesfront-right"><path id="SvgjsPath5859" d="M125.801 60c-9.94 0-18 11.193-18 25.001 0 13.808 8.06 24.999 18 24.999s18-11.191 18-24.999C143.801 71.192 135.741 60 125.801 60zM131.425 89.026c-3.031 0.914-6.378 0.959-10.688 0.204 -2.497-0.438-6.105-1.323-8.395-3.143 2.748-3.11 7.836-5.091 12.788-5.71 3.541-0.443 11.175-0.123 14.89 0.154C138.612 84.201 134.552 88.083 131.425 89.026z" fill="#f0c7b1" stroke-width="none" opacity="1"></path><path id="SvgjsPath5860" d="M124.846 68.835c-10.416-0.043-18.875 6.635-18.902 14.92 -0.023 8.284 8.398 15.033 18.813 15.08 10.418 0.043 18.875-6.635 18.902-14.919C143.682 75.631 135.262 68.882 124.846 68.835zM131.425 89.026c-3.031 0.914-6.378 0.959-10.688 0.204 -2.497-0.438-6.105-1.323-8.395-3.143 2.748-3.11 7.836-5.091 12.788-5.71 3.541-0.443 11.175-0.123 14.89 0.154C138.612 84.201 134.552 88.083 131.425 89.026z" fill="url(#SvgjsRadialGradient5861)" opacity="1"></path><path id="SvgjsPath5865" d="M140.021 80.531c-3.715-0.277-11.349-0.597-14.89-0.154 -4.952 0.619-10.04 2.6-12.788 5.71 2.289 1.82 5.897 2.705 8.395 3.143 4.31 0.755 7.656 0.71 10.688-0.204C134.552 88.083 138.612 84.201 140.021 80.531z" fill="url(#SvgjsRadialGradient5866)" opacity="1"></path><path id="SvgjsPath5869" d="M113.697 81.396c4.491-2.822 7.736-4.781 18.34-4.3C130.57 77.042 121.158 77.023 113.697 81.396zM135.137 89.016c-1.154 0.617-2.689 1.205-2.664 1.196 2.734-1.164 4.678-0.564 7.531-6.058C138.492 86.564 138.127 87.296 135.137 89.016z" fill="#c27b55" stroke-width="none" opacity="1"></path><path id="SvgjsPath5870" d="M124.787 79.305c-5.816 0.587-10.176 2.165-13.57 7.358 3.79 2.809 8.301 3.483 15.584 3.374 9.57-0.145 11.474-4.079 14.331-10.071C141.132 79.966 130.686 78.709 124.787 79.305zM131.074 88.754c-2.828 0.853-5.951 0.895-9.973 0.19 -2.33-0.409-5.697-1.234-7.834-2.933 2.564-2.902 7.313-4.751 11.934-5.328 3.305-0.413 10.428-0.114 13.895 0.144C137.781 84.252 133.992 87.875 131.074 88.754z" fill="#000000" stroke-width="none" opacity="1"></path></g></g></g><g id="svga-group-facehighlight-single"><path id="SvgjsPath4200" d="M141 113.974c0.035 22.622-18.292 40.994-40.938 41.025 -22.642 0.037-41.028-18.273-41.063-40.9 -0.035-22.62 18.292-41.064 40.937-41.1C122.579 72.964 140.967 91.349 141 113.974z" fill="url(#SvgjsRadialGradient4201)" opacity="1"></path><path id="SvgjsPath4204" d="M137.5 53.999c0 20.711-16.789 37.5-37.499 37.5 -20.711 0-37.501-16.789-37.501-37.5s16.79-37.5 37.501-37.5C120.711 16.499 137.5 33.288 137.5 53.999z" fill="url(#SvgjsRadialGradient4205)" opacity="1"></path></g><g id="svga-group-eyebrows-left-move" transform="matrix(1,0,0,1,0,0)"><g id="svga-group-eyebrows-left-rotate" transform="matrix(1,0,0,1,0,0)"><g id="svga-group-eyebrows-left" transform="matrix(1,0,0,1,0,0)"><path id="SvgjsPath5893" d="M54.205 76c21.295-17.8 43.536-4.503 36.719-1.268C88.252 76 78.133 64.999 54.205 76z" fill="#2a232b" stroke-width="none" opacity="1"></path></g></g></g><g id="svga-group-eyebrows-right-move" transform="matrix(1,0,0,1,0,0)"><g id="svga-group-eyebrows-right-rotate" transform="matrix(1,0,0,1,0,0)"><g id="svga-group-eyebrows-right" transform="matrix(1,0,0,1,0,0)"><path id="SvgjsPath5894" d="M145.795 76c-21.295-17.8-43.536-4.503-36.719-1.268C111.748 76 121.867 64.999 145.795 76z" fill="#2a232b" stroke-width="none" opacity="1"></path></g></g></g><g id="svga-group-nose-single-move" transform="matrix(1,0,0,1,0,0)"><g id="svga-group-nose-single" transform="matrix(1,0,0,1,0,0)"><path id="SvgjsPath4551" d="M109.895 118.829c0.19-0.512 0.307-1.047 0.396-1.584 0.033-0.198-0.229-0.929-0.252-0.697 -0.101 0.941-0.612 2.262-1.6 2.551 -1.133 0.329-1.783-0.056-1.886-1.172 -0.104-1.125 0.297-2.619-0.109-3.665 -0.264-0.676-0.856-1.226-1.464-1.606 0.458 2.04 0.823 4.704-1.128 6.164 0.167 0.199 0.319 0.293 0.467 0.333 -0.153 0.026-0.308 0.059-0.467 0.13 -0.771 0.352-3.586 1.015-4.404 0.657 -0.193-0.085-0.622-0.152-1.16-0.204 -0.362-0.315-1.023-1.138-1.332-1.328 -1.215-0.751-1.851-2.069-1.926-3.472 -0.163-2.955 1.373-6.245 4.861-7.528 -3.578-1.004-4.064 4.863-6.408 6.172 -1.402 0.783-2.741 1.479-2.716 3.229 0.008 0.579 0.078 1.419 0.34 2.122 -0.421-0.591-0.699-1.125-0.739-0.653 -0.342 3.979 3.522 2.884 5.042 3.158 1.255 0.227 3.412 0.544 4.459 0.563 1.137 0.02 2.858-0.377 3.981-0.563 1.087-0.181 2.985 0.037 4.381-0.59 0.824-0.371 2.006-0.612 2.006-2.211l-0.402 0.326C109.855 118.916 109.878 118.874 109.895 118.829z" fill="#e1ac8f" stroke-width="none" opacity="1" stroke="none"></path><path id="SvgjsPath4552" d="M90.642 116.322c0.15-0.48 0.371-0.961 0.73-1.324 -0.631 1.095-0.719 2.661-0.152 3.799 0.697 1.399 1.94 1.104 3.131 0.563 1.191-0.54 1.188-0.938 2.426-0.526 0.963 0.319 1.737 0.795 2.797 0.793 1.132-0.002 1.977-0.471 3.03-0.798 1.278-0.38 2.357-0.162 3.559 0.378 1.13 0.509 2.426 1.15 3.301-0.117 0.773-1.148 0.69-2.922 0.017-4.092 1.51 1.542 1.145 5.938-1.745 5.384 -0.397-0.08-1.098-0.563-1.451-0.469 -0.64 0.175-1.445 0.007-2.091-0.054 -1.175-0.112-2.195-0.108-3.312 0.174 -0.429 0.1-0.869 0.158-1.309 0.154 -0.525-0.007-1.057-0.268-1.556-0.237 -1.4 0.086-1.984-0.214-3.39-0.124 -1.197 0.077-1.955 1.13-3.142 0.177C90.436 119.125 90.275 117.566 90.642 116.322 90.719 116.078 90.497 116.814 90.642 116.322zM101.211 107.662c0.557 0.115 1.063 0.367 1.531 0.684 -1.391-2.209-4.931-1.408-6.339 0.345C97.843 107.926 99.562 107.296 101.211 107.662 101.478 107.719 100.678 107.543 101.211 107.662z" fill="#c27b55" stroke-width="none" opacity="1" stroke="none"></path><path id="SvgjsPath4553" d="M93.079 117.678c-0.216-1.586 0.406-3.049-0.995-1.972C91.214 116.375 93.418 120.168 93.079 117.678z" fill="#ffe4d6" stroke-width="none" opacity="1" stroke="none"></path></g></g><g id="svga-group-beardwrap" transform="matrix(1,0,0,1,0,0)"><g id="svga-group-beard-single-move" transform="matrix(1,0,0,1,0,0)"><g id="svga-group-beard-single" transform="matrix(1,0,0,1,0,0)"><path id="SvgjsPath4534" d="M91.49 171.47c-11.62-3.9-10.97-10.89-15.45-16.04 -4.66-5.18-13.82-11.51-9.41-17.53 7.96 4.33 10.59-6.08 13.51-9.71 5.09-5.82 12.72-7.51 19.81-5.07 8.63-2.72 17.4-0.14 22.06 8.45 2.69 4.92 5.13 9.36 11.35 6.32 3.51 4.83-1.58 9.78-6.06 14.15 -1.72 1.68-3.35 3.26-4.37 4.72 -3.54 4.77-3.27 10.85-14.36 14.68C104.43 172.96 96.13 173.19 91.49 171.47zM87.22 130.94c-4.6 1.81-6.77 5.91-5.81 10.97 1.03 5.45 5.16 9.89 9.19 9.89 0 0 0 0 0 0 5.38 0 8.33-7.58 9.39-12.8 6.82 32.37 33.15-6.07 8.51-9.19C106.67 129.57 92.7 128.69 87.22 130.94z" fill="#2a232b" stroke-width="none" opacity="1"></path><path id="SvgjsPath4535" d="M66.61 137.77c2.9 7.97 10.25 10.98 12.88 15.74 3.33 6.04 5.32 11.58 11.02 17.72 -10.67-3.97-10.22-10.76-14.54-15.73 -2.21-2.45-3.56-3.53-5.88-5.9C66.68 146.08 63.56 141.83 66.61 137.77 68.32 138.71 65.34 137.98 66.61 137.77zM133.39 137.77c-2.9 7.97-10.25 10.98-12.88 15.74 -3.33 6.04-5.32 11.58-11.02 17.72 10.67-3.97 10.21-10.76 14.54-15.73 2.21-2.45 3.56-3.53 5.88-5.9C133.32 146.08 136.44 141.83 133.39 137.77 131.68 138.71 134.66 137.98 133.39 137.77z" fill="#1b141c" stroke-width="none" opacity="1"></path><path id="SvgjsPath4536" d="M133.4 137.77c-6.27 3.1-8.65-1.4-11.37-6.38 -4.51-8.49-13.65-11.08-22.04-8.36 -6.74-2.32-14.53-1.05-19.92 5.1 -2.96 3.67-5.52 14.04-13.46 9.64 -3.05 4.06 0.07 8.31 3.48 11.83 2.32 2.37 3.67 3.45 5.88 5.9 4.45 5.12 3.84 12.16 15.49 16.07 4.86 1.8 13.22 1.41 17.15-0.02 11.12-3.84 10.91-9.99 14.41-14.72C126.69 151.56 138.45 144.55 133.4 137.77zM121.75 155.94c-2.28 3.09-3.72 8.2-6.99 10.6 -3.53 2.72-8.05 4.86-13.13 5.26 -0.08 0.04-3.22 0.06-4.75-0.15 -4.55-0.46-10.36-3.68-13.27-6.65 -2.87-3.54-3.29-6.95-6.91-11.02 -4.63-5.09-13.23-9.6-9.97-15.79 1.63 0.75 5.14 2.73 8.86-1.09 3.04-3.16 6.77-17.71 24.42-13.58 8.36-1.96 17.01 0.6 21.03 8.41 3.38 6.07 6.12 9.34 12.22 6.27C137 144.8 125.97 149.85 121.75 155.94zM116.78 132.81c-4.23-4.11-10.93-3.84-16.77-3.3 -9.28-0.86-18.98 0.09-19.5 9.52 -0.74 12.08 15.39 22.46 19.49 0.92 4.27 21.62 20.22 11.05 19.49-0.92 -0.09-1.64-0.47-2.69-0.48-2.69C118.62 135.08 117.86 133.79 116.78 132.81zM101.03 142.48c-0.49-1.56-0.86-3.05-1.03-4 -0.37 2.11-1.35 5.42-2.64 7.91 -8.48 16.3-24.93-9.53-10.1-15.35 5.48-2.25 19.46-1.35 21.24-1.12C131.47 132.82 109.6 167.98 101.03 142.48z" fill="#000000" stroke-width="none" opacity="1"></path></g></g></g><g id="svga-group-mustache-single-move" transform="matrix(1,0,0,1,0,0)"><g id="svga-group-mustache-single" transform="matrix(1,0,0,1,0,0)"><path id="SvgjsPath4510" d="M100,18.13L100,18.13L100,18.13L100,18.13z" fill="#2a232b" stroke-width="none" opacity="1"></path></g></g><g id="svga-group-hair-front" transform="matrix(1,0,0,1,0,0)"><path id="SvgjsPath4481" d="M44.974,94.895c-2.423-8.815-3.728-16.533-5.54-24.585l0.083-0.019c-0.686-1.689-3.162-15.06-3.185-15.204c-2.525-17.77,4.993-18.784,4.84-26.198c3.165,1.585,6.242,0.799,9.019-1.365c-2.918-1.499-1.997-1.736-5.872-4.095c2.731-0.472,4.326,0.165,6.646,0.454c-1.983-1.983-5.875-6.028-8.404-5.492l-0.165-0.354c3.661-2.857,8.548,3.091,12.954,1.48C55.483,3.144,79.417-0.256,85.242-2.689c7.755-2.951,15.856-9.441,21.553-10.021c-3.225,3.241-5.2,8.449-5.347,12.358c4.698-4.486,5.03-4.355,12.151-12.264c0,6.364-1.763,7.163-4.051,10.898c6.211-4.07,13.955-15.489,25.881-17.235l0.131,0.37c-4.298,2.532-7.624,6.804-9.898,12.708c2.257-2.726,5.451-5.683,8.986-6.218l0.133,0.369c-2.215,1.325-6.554,5.742-7.547,13.138c4.381-4.893,11.35-8.948,16.134-10.48l0.187,0.346c-4.392,3.573-6.153,9.828-7.146,15.146c3.08-4.58,4.872-5.624,8.747-7.548c-1.247,1.865-1.166,1.539-2.158,3.566c2.396,6.123,10.313,6.361,11.666,17.059c1.63-1.424,2.277-1.781,4.151-3.092l0.282,0.272c-1.408,2.187-2.569,6.06-3.342,8.652c2.78-2.123,7.073-3.687,10.096-4.778l0.211,0.328c-2.551,2.593-5.648,6.546-6.162,10.834c1-0.592,1.048-0.524,2.35-1.466c0,3.081,0.105,2.688,0.127,4.105c1.257-1.125,1.45-1.282,2.276-2.181c-0.183,32.362-1.845,25.912-6.317,48.466c-0.784,3.963-2.171,10.883-3.061,14.207l-6.049,1.039c1.87-22.394-0.093-17.512,1.267-31.604c2.012-20.779-14.804-37.812-37.025-32.237c-4.496,1.128-22.44,1.127-26.934,0c-24.547-6.163-33.391,8.18-36.026,33.278c-1.291,12.318-1.607,8.161,0.267,30.563L44.974,94.895z" fill="#2a232b" stroke-width="none" opacity="1" stroke="none"></path><path id="SvgjsPath4482" d="M162.376,34.359c-0.021-1.418-0.127-1.024-0.127-4.105c-1.302,0.941-1.35,0.874-2.35,1.466c0.514-4.288,3.611-8.241,6.162-10.834l-0.211-0.328c-3.022,1.092-7.315,2.655-10.096,4.778c0.772-2.592,1.934-6.465,3.342-8.652l-0.282-0.272c-1.874,1.311-2.521,1.668-4.151,3.092c-1.353-10.697-9.27-10.936-11.666-17.059c0.992-2.027,0.911-1.701,2.158-3.566c-3.875,1.924-5.667,2.968-8.747,7.548c0.993-5.318,2.755-11.573,7.146-15.146l-0.187-0.346c-4.784,1.532-11.753,5.587-16.134,10.48c0.993-7.396,5.332-11.813,7.547-13.138l-0.133-0.369c-3.535,0.535-6.729,3.493-8.986,6.218c2.274-5.904,5.601-10.176,9.898-12.708l-0.131-0.37c-11.926,1.746-19.67,13.165-25.881,17.235c2.288-3.735,4.051-4.535,4.051-10.898c-7.121,7.909-7.453,7.778-12.151,12.264c0.146-3.909,2.122-9.118,5.347-12.358c-5.696,0.58-13.797,7.069-21.553,10.021C79.417-0.256,55.483,3.144,55.35,19.518c-4.406,1.611-9.293-4.337-12.954-1.48l0.165,0.354c2.529-0.537,6.421,3.508,8.404,5.492c-2.319-0.289-3.915-0.926-6.646-0.454c3.875,2.359,2.954,2.596,5.872,4.095c-2.777,2.164-5.854,2.95-9.019,1.365c0.153,7.415-7.366,8.429-4.84,26.198c0.023,0.144,2.499,13.515,3.185,15.204l-0.083,0.019c1.812,8.052,3.117,15.771,5.54,24.585L45,94.899c-0.661-16.442-11.02-39.816-4.941-54.788C40.852,38.156,43.92,33,43.92,33s9.627-1.264,10.08-5c0,0-2-1-3-2c2,1,2-2,4-1c0-2-3-1-3-3c2,0,4,0,6,2c-1-5,0-10,4-13C72,3,85,4,95-4c-1,5-2,10-2,15c6-3,8-9,13-13c1,4-1,9-1,13c3-7,7-14,16-16c-4,4-4,10-4,15c0-4,4-6,5-9c0,4,0,8,0,12c2-6,6-9,11-11c-4,4-3,8-4,13c3-3,7-4,10-7c3,6,1,11,1,17c1-5,6-8,9-12c1,5,1,10,0,15c1-3,3-5,4-8c0,4.86-0.668,9.062-1.98,13.142c1.255-1.452,3.304-2.111,3.98-4.142c0,4.325,0,7.904,0,12.027c0.58-1.192,2.29-1.608,3-3.027c-0.854,3.413-0.254,6.103-0.059,9.302c0.371-1.96,2.258-3.162,2.94-4.967c0.04-0.778,0.081-1.557,0.118-2.335c0.229,0.912,0.135,1.664-0.118,2.335c-0.912,17.771-2.593,35.516-6.256,52.628l0.648-0.111c0.89-3.324,2.276-10.244,3.061-14.207c4.473-22.554,6.135-16.104,6.317-48.466C163.826,33.078,163.633,33.235,162.376,34.359z" fill="#3a353a" stroke-width="none" opacity="1" stroke="none"></path><path id="SvgjsPath4483" d="M167.779,19.695c-4.949,0.834-8.406,2.438-11.05,4.25c0.385-1.005,2.193-6.67,4.14-9.05c-2.99,1.333-4.72,2.763-5.72,3.51c0-1.032-0.398-2.224-0.59-2.84c-0.189-0.515-0.348-1.117-1.271-2.62c-5.171-7.296-5.494-4.244-9.729-9.83c0.772-1.811,1.889-3.572,3.29-5.03c-3.908,0.555-5.965,2.075-8.44,4.51c-0.04,0.04-0.07,0.08-0.1,0.12c1.551-6.126,4.59-11.437,10.56-13.43c-7.384-0.268-16.525,5.192-21.12,10.64c1.984-6.381,4.646-9.421,8.601-12.25c-2.846-0.421-5.635,0.742-7.841,2.58c2.541-4.397,6.317-7.899,9.351-9.53c-0.431-0.01-0.94-0.04-1.5,0c-0.777-0.199-5.479,0.566-7.16,1.29c-8.329,3.252-14.389,10.822-16.99,13.28c1.916-3.098,2.01-5.298,1.66-8.52c-0.655,0.563-11.615,11.055-11.75,11.19c0.777-4.309,2.245-6.937,5.02-10.79c-4.947-0.926-17.332,7.217-25.01,9.39c-8.044,2.179-28.004,6.723-27.09,22.7c-4.295,0.819-10.584-6.077-13.88-0.29c2.646-1.57,6.151,2.21,8.59,4.37c-1-0.163-4.343-0.948-5.96,0.13c1.894,0.735,3.55,2.932,5.89,4.1c0.03,0.01,0.06,0.02,0.09,0.04c-2.139,1.128-4.667,2.034-6.99,1.39c-0.35-0.1-0.58-0.16-0.58-0.17c-0.27-0.12-0.56-0.24-0.87-0.38h-0.01l-0.01-0.01c-0.13-0.07-0.26-0.14-0.4-0.21c0.695,5.608-7.817,10.155-6.88,22.02c0.385,7.301,4.949,29.508,10.686,44.566l0.483,0.144c-2.392-8.626-3.777-16.74-5.569-24.701c-0.156,0-3.073-15.044-3.1-15.21c-2.506-17.631,4.994-18.91,4.85-25.84c3.121,1.561,6.532,0.436,9.18-1.73c-3.118-1.551-2.453-1.988-5.68-3.95c2.163-0.374,4.803,0.483,6.62,0.6c-2.346-2.346-6.299-6.51-8.98-5.94c3.568-2.785,8.497,3.271,13.03,1.46c0-16.383,23.723-19.635,29.77-22.16c7.271-2.766,16.283-9.476,20.939-9.95c-2.44,2.458-5.02,7.901-5.02,12.58c4.834-4.638,5.31-4.615,12.16-12.22c0,6.014-2.247,7.088-4.431,10.97c6.414-3.698,14.179-15.828,26.49-17.63c-5.154,3.037-8.435,8.325-10.41,13.97c2.352-3.059,5.8-6.53,9.63-7.11c-2.009,1.202-6.861,5.782-7.72,13.93c4.345-5.114,11.586-9.346,16.47-10.91c-4.605,3.748-6.368,10.371-7.39,16.22c1.687-2.573,3.357-4.897,5.97-6.54c0.011-0.01,0.03-0.02,0.04-0.02c1.029-0.699,0.76-0.509,2.521-1.39c-0.669,1-0.731,0.87-1.79,3.04c2.426,6.377,10.523,6.413,11.729,17.47c1.857-1.647,2.441-1.944,4.42-3.33c-1.542,2.394-2.784,6.768-3.55,9.32c2.905-2.485,8.279-4.33,10.54-5.15c-3,3.05-5.913,7.096-6.26,11.36c0.614-0.413,1.394-0.74,2.39-1.46c0,2.724,0.13,2.36,0.13,4.16c0.526-0.481,1.72-1.51,2.271-2.11c-0.196,31.716-1.88,25.564-6.311,47.91c-1.658,8.376-2.533,12.25-3.081,14.283l0.428-0.087c3.584-10.751,10.737-35.042,10.414-47.616c-0.033-4.7-1.059-14.5-1.11-15.5c-0.021,0.018-2.084,1.97-2.11,1.97c0-0.511-0.21-2.685-0.21-3.87c-0.353,0.271-1.095,0.778-2.09,1.36C161.758,26.981,163.857,24.394,167.779,19.695z" fill="#000000" stroke-width="none" opacity="1" stroke="none"></path></g><g id="svga-group-glasses-single-move" transform="matrix(1,0,0,1,0,0)"><g id="svga-group-glasses-single" transform="matrix(1,0,0,1,0,0)"><path id="SvgjsPath4455" d="M143.62 100.1c-2.36 2.2-6.23 3.04-13.56 3.04 -9.78 0-16.18-1.09-20.41-9.51 -3.29-6.54-4.62-13.56-3.02-15.98 2.21-3.34 8.57-5.61 15.67-6.28C134.63 77.23 143.29 88.98 143.62 100.1zM72.01 71.17c-7.64 0.21-15.09 2.35-18.27 7.05 -2.18 3.21-1.69 12.55-0.22 16.94 2 5.99 5.07 7.98 16.42 7.98 9.78 0 16.18-1.09 20.41-9.51 0.42-0.84 0.81-1.69 1.17-2.54C88.29 82.95 81.16 75.43 72.01 71.17z" fill="#ffffff" stroke-width="none" opacity="0.2"></path><path id="SvgjsPath4456" d="M146.48 95.17c-0.71 2.12-1.56 3.73-2.86 4.94 -0.33-11.12-8.99-22.87-21.33-28.74 9.37-0.89 19.99 0.99 23.97 6.86C148.44 81.44 147.95 90.77 146.48 95.17zM93.38 77.65c-2.79-4.23-12.22-6.73-21.37-6.47 9.16 4.25 16.28 11.77 19.52 19.92C93.94 85.36 94.77 79.76 93.38 77.65z" fill="#ffffff" stroke-width="none" opacity="0.4"></path><path id="SvgjsPath4457" d="M151.79 73.61c-10.18-5.46-36.14-7.01-45.5 0.15 -0.8 0.47-4.23-0.53-6.29-0.53 -1.95 0-5.42 1.05-6.29 0.53 -9.36-7.16-35.32-5.61-45.5-0.15 -1.46 0.79-1.62 4.51-0.35 5.08 0.91 0.41 1.51 0.98 1.46 1.98C49 86.29 50.55 93.59 51.23 95.6c0.87 2.59 2.44 7.41 9.29 8.6 5.83 1.01 16.43 1.48 21.94-0.17 9.99-2.98 14.24-18.04 14.42-23.17l0.01 0.02c0.4-1.8 5.82-1.8 6.23 0l0.01-0.02c0.17 5.13 4.43 20.19 14.42 23.17 5.51 1.65 16.11 1.18 21.94 0.17 6.85-1.19 8.42-6.01 9.29-8.6 0.68-2.02 2.23-9.31 1.92-14.93 -0.05-1 0.56-1.57 1.46-1.98C153.41 78.12 153.25 74.4 151.79 73.61zM81.41 101.36c-5.06 1.51-14.32 1.61-19.71 0.67 -4.54-0.79-6.44-3.26-7.7-7.03 -1.48-4.4-1.87-13.51 0.16-16.5 6.76-9.98 33.87-8.05 38.8-0.58C95.16 81.27 90.89 98.53 81.41 101.36zM146 95.01c-1.26 3.77-3.17 6.24-7.7 7.03 -5.39 0.94-14.65 0.84-19.71-0.67 -9.48-2.83-13.75-20.09-11.55-23.44 4.93-7.47 32.04-9.4 38.8 0.58C147.87 81.49 147.48 90.61 146 95.01z" fill="#26120b" stroke-width="none" opacity="1" stroke="none"></path><path id="SvgjsPath4458" d="M118.58 101.32c2.79 0.83 6.86 1.24 10.85 1.27 -12.54 1.22-15.39-3.4-17.12-5.16 -3.52-3.59-5.69-8.95-5.85-16.65C106.49 86.86 110.76 98.99 118.58 101.32zM93.69 73.72c-9.36-7.16-35.32-5.62-45.5-0.15C71.43 67.05 84.93 70.42 93.69 73.72zM61.68 102c-4.54-0.79-6.44-3.26-7.7-7.03 -1.32-3.93-1.77-11.62-0.4-15.35 -1.83 4.22-1.12 12.39 0.26 16.5 1.6 4.8 4.54 7.18 17.34 6.46C67.71 102.65 64.25 102.44 61.68 102zM152.97 76.3c-0.04-1.13-0.45-2.32-1.2-2.73 -9.98-5.36-35.14-6.94-44.93-0.25C120 68.05 138.97 67.31 152.97 76.3z" fill="#351d15" stroke-width="none" opacity="1" stroke="none"></path></g></g></g></g></g><rect id="svga-credit-rect" width="200" height="15" x="0" y="185" fill="#ecf0f1" opacity="0.5" style="display: none;"></rect><text id="svga-credit-text" font-family="Avenir Next, Roboto, Helvetica, Arial, sans-serif" font-size="10px" text-anchor="start" font-weight="400" size="10px" anchor="start" weight="400" fill="#333333" x="33.34375" y="182.609375" style="display: none;"><tspan id="SvgjsTspan4187" dy="13" x="33.34375">Created on AvatarMaker.com</tspan></text></g></svg>